# xmcd
#
# Track frame offsets: 
#        150
#        20715
#        34422
#        53120
#        72469
#        88576
#        99090
#        124416
#        141587
#        157118
#        179199
#        195293
#        222769
#
# Disc length: 3366 seconds
#
# Revision: 5
# Processed by: cddbd v1.5.2PL0 Copyright (c) Steve Scherf et al.
# Submitted via: ExactAudioCopy v0.99pb5
#
DISCID=c60d240d
DTITLE=Miskiewicz Dorota - Pod rzesami
DYEAR=2005
DGENRE=Jazz
TTITLE0=Moj wilku
TTITLE1=Poza czasem
TTITLE2=Aksamit
TTITLE3=Pod rzesami
TTITLE4=Wyspa, drzewo, zamek
TTITLE5=Wciaz sie snisz
TTITLE6=Pragne byc jeziorem
TTITLE7=W malych istnieniach
TTITLE8=Oszustwo
TTITLE9=Gra-a-a
TTITLE10=Nieuniknione
TTITLE11=Gdzie jestes, gdzie?
TTITLE12=Teledysk - Poza czasem
EXTD=YEAR: 2005
EXTT0=
EXTT1=
EXTT2=
EXTT3=
EXTT4=
EXTT5=
EXTT6=
EXTT7=
EXTT8=
EXTT9=
EXTT10=
EXTT11=
EXTT12=
PLAYORDER=
